<?xml version="1.0" standalone="no"?>
<!DOCTYPE svg PUBLIC "-//W3C//DTD SVG 20010904//EN"
 "http://www.w3.org/TR/2001/REC-SVG-20010904/DTD/svg10.dtd">
<svg version="1.0" xmlns="http://www.w3.org/2000/svg"
 width="1080.000000pt" height="1280.000000pt" viewBox="0 0 1080.000000 1280.000000"
 preserveAspectRatio="xMidYMid meet">
<g transform="translate(0.000000,1280.000000) scale(0.100000,-0.100000)"
fill="#3f51b5" stroke="none">
<path d="M7412 12774 c-144 -53 -281 -161 -554 -435 -124 -125 -238 -235 -252
-244 -25 -17 -29 -16 -158 43 -292 132 -552 179 -623 112 -14 -13 -25 -33 -25
-45 0 -70 68 -174 224 -348 64 -70 116 -132 116 -139 0 -20 -40 -95 -60 -113
-11 -10 -46 -22 -77 -26 -93 -13 -132 -54 -173 -180 -24 -72 -31 -84 -76 -117
-65 -50 -94 -102 -94 -170 0 -58 15 -95 54 -131 34 -32 32 -48 -13 -100 l-39
-44 -83 60 c-183 132 -228 152 -263 118 -20 -20 -22 -20 -88 23 -63 41 -71 58
-33 72 29 11 31 26 8 60 -76 114 -292 254 -495 321 -170 55 -394 83 -467 58
-34 -12 -43 -32 -39 -93 l3 -39 -90 -27 c-103 -30 -127 -41 -174 -82 l-33 -29
-20 20 c-24 26 -48 27 -81 1 -15 -12 -40 -20 -62 -20 -33 0 -38 -3 -52 -40
-18 -44 -41 -57 -75 -39 -19 10 -24 9 -33 -6 -28 -49 -83 -73 -100 -45 -4 6
-30 24 -58 40 -64 37 -109 38 -204 6 -95 -32 -107 -40 -131 -79 -17 -29 -27
-36 -68 -42 -85 -12 -152 -44 -212 -100 -32 -29 -86 -66 -123 -82 -42 -19 -74
-42 -89 -63 -12 -17 -41 -40 -64 -50 -53 -22 -61 -33 -78 -100 -13 -52 -17
-57 -66 -81 -28 -15 -65 -38 -82 -53 -17 -14 -36 -26 -41 -26 -5 0 -38 -18
-73 -40 -36 -22 -92 -53 -126 -70 -61 -31 -75 -55 -46 -79 11 -9 12 -6 8 14
-5 28 22 45 41 26 15 -15 27 -14 27 3 0 17 16 23 91 31 89 11 102 -27 28 -89
-17 -14 -41 -26 -55 -26 -15 0 -24 -6 -24 -15 0 -19 -29 -19 -56 -1 -19 14
-20 13 -16 -15 4 -24 -1 -31 -28 -46 -18 -10 -49 -32 -70 -49 -21 -17 -52 -37
-70 -44 -39 -16 -41 -14 -109 99 -76 125 -76 124 9 303 39 83 86 172 103 197
51 74 149 166 210 196 64 31 99 30 147 -5 43 -31 100 -25 100 11 0 24 -101 99
-314 234 -339 215 -647 385 -698 385 -44 0 -36 -38 22 -111 65 -81 76 -121 56
-199 -17 -65 -66 -168 -123 -258 -67 -106 -195 -272 -208 -272 -8 0 -17 9 -20
20 -9 28 -43 26 -49 -2 -3 -13 -8 -49 -11 -81 -6 -54 -10 -61 -63 -113 -31
-30 -129 -108 -217 -172 -435 -317 -602 -480 -673 -656 -29 -73 -62 -248 -62
-337 0 -81 24 -196 57 -265 29 -63 96 -128 168 -160 70 -32 247 -72 354 -79
120 -9 129 -11 152 -48 15 -24 19 -26 14 -9 -9 33 19 62 60 62 43 0 62 -22 47
-54 -14 -31 -7 -36 31 -25 54 15 67 11 83 -26 14 -34 9 -65 -13 -77 -5 -3 -2
-3 5 -2 29 7 46 -15 111 -146 70 -141 96 -182 181 -295 26 -35 53 -81 60 -102
7 -21 26 -62 42 -92 l30 -55 -17 -73 c-24 -100 -15 -168 31 -258 50 -95 93
-259 84 -316 -6 -44 -159 -322 -242 -440 -35 -51 -38 -59 -27 -83 10 -20 9
-34 -1 -66 -9 -28 -11 -49 -4 -67 5 -15 61 -72 124 -126 451 -390 892 -821
1086 -1062 157 -195 237 -281 286 -306 132 -67 639 -67 949 1 153 33 260 76
510 202 234 118 339 168 549 258 162 70 186 79 199 71 23 -15 122 -552 177
-961 23 -173 27 -240 31 -585 7 -508 -6 -767 -48 -965 -16 -80 -41 -201 -54
-270 -13 -69 -29 -151 -36 -182 -16 -73 -4 -93 52 -84 45 7 55 -3 62 -64 3
-25 10 -74 16 -110 16 -108 24 -755 12 -955 -13 -208 -20 -240 -160 -695 -49
-162 -106 -360 -126 -440 -20 -80 -48 -184 -61 -232 -40 -137 -24 -150 206
-167 174 -13 2650 -16 3634 -4 l578 6 -6 39 c-5 33 -1 48 32 102 63 104 76
165 65 292 -6 74 -5 137 2 198 12 92 7 155 -15 181 -7 9 -15 71 -21 160 -4 80
-10 149 -13 153 -3 5 -10 48 -16 98 -6 49 -23 129 -36 178 -30 107 -36 192
-14 206 24 16 146 50 186 53 31 2 40 -2 50 -23 170 -334 299 -622 339 -755 16
-54 113 -266 189 -414 31 -61 53 -91 64 -91 18 0 79 73 122 145 13 22 38 58
55 80 54 69 94 142 109 202 37 140 245 560 355 713 13 19 47 58 73 86 50 52
58 72 84 239 8 49 -169 380 -439 819 -505 821 -658 1049 -977 1451 -91 116
-201 258 -244 318 -43 59 -122 154 -176 212 -124 131 -125 136 -86 280 9 32
16 76 16 97 0 21 11 77 25 124 36 125 34 218 -7 340 l-32 95 23 122 c13 67 28
149 33 182 5 33 25 131 44 219 28 128 40 166 64 199 32 44 38 87 20 162 -7 31
-4 59 15 131 49 188 109 464 126 574 15 102 17 366 8 790 -8 383 -5 355 -83
699 -98 428 -288 638 -641 707 -172 34 -165 32 -165 55 0 12 24 47 53 78 55
60 116 166 138 239 7 23 18 42 26 42 7 0 54 -20 103 -45 119 -60 224 -89 325
-89 119 -1 167 37 168 134 1 42 -8 68 -51 153 -29 56 -84 143 -123 192 -135
173 -159 207 -159 230 0 13 28 55 66 101 36 43 113 144 171 224 59 80 128 172
154 206 96 122 120 202 99 337 -21 142 -76 282 -174 441 -179 293 -452 572
-751 769 -207 135 -539 288 -734 336 -104 26 -139 25 -219 -5z m-2829 -1314
c20 -6 37 -17 37 -23 0 -10 -39 -13 -157 -12 -154 0 -158 1 -161 22 -2 14 3
23 15 27 28 8 223 -2 266 -14z m217 -88 c69 -25 168 -81 175 -100 3 -8 3 -23
0 -33 -10 -30 -51 -23 -113 20 -31 21 -83 53 -114 71 -55 30 -68 47 -51 64 9
9 28 5 103 -22z m-162 -180 c107 -47 434 -225 452 -246 6 -8 32 -27 56 -41 42
-25 57 -56 34 -70 -18 -11 -11 -37 16 -57 40 -32 28 -64 -30 -82 -18 -6 -18
-7 -1 -26 25 -28 52 -25 92 11 28 24 41 29 62 24 54 -14 67 -48 31 -80 -11
-10 -20 -26 -20 -35 0 -15 10 -13 65 16 l65 34 54 -20 c79 -30 84 -40 47 -97
-33 -50 -34 -53 -22 -128 10 -57 -5 -109 -43 -160 -53 -69 -64 -215 -22 -280
59 -89 227 -170 439 -209 97 -19 229 -66 260 -93 32 -29 47 -77 47 -150 0 -74
20 -182 46 -250 l17 -43 -47 -41 c-25 -22 -62 -65 -81 -94 -40 -59 -58 -73
-130 -99 -27 -11 -88 -38 -135 -61 -47 -24 -118 -58 -158 -76 l-74 -33 -34 19
c-18 10 -42 33 -53 50 -18 32 -22 33 -102 40 -104 9 -123 20 -138 83 -16 66
-45 109 -116 174 -71 65 -93 78 -135 78 -55 0 -94 26 -170 109 -43 48 -150
142 -259 228 -102 81 -205 164 -228 184 -22 21 -59 47 -81 58 -21 11 -74 60
-118 108 -43 48 -112 124 -154 168 -42 44 -104 118 -137 165 -54 76 -64 99
-92 200 -17 63 -36 134 -43 157 -11 39 -10 45 7 62 11 11 30 31 43 45 26 28
268 195 343 236 104 57 129 79 129 110 0 19 9 38 27 55 31 28 43 31 60 14 13
-13 35 21 32 49 -4 43 -1 45 54 39 28 -3 94 -23 145 -45z m461 11 c12 -10 24
-35 28 -55 5 -36 4 -38 -21 -38 -51 0 -95 67 -64 98 17 17 32 15 57 -5z m-964
-213 c0 -29 -213 -165 -231 -148 -14 15 8 40 93 103 62 46 95 65 113 63 14 -2
25 -9 25 -18z m-2431 -612 c3 -13 7 -39 11 -59 3 -20 22 -62 41 -95 71 -115
70 -112 58 -131 -6 -9 -22 -26 -36 -36 -26 -20 -27 -20 -54 2 -14 11 -39 21
-54 21 -15 0 -32 6 -37 13 -19 23 -21 69 -5 97 16 28 16 29 -11 54 -39 36 -35
70 12 117 44 44 68 49 75 17z m-150 -144 c9 -3 16 -11 16 -17 0 -17 -127 -136
-153 -142 -26 -7 -67 9 -67 25 0 16 152 140 171 140 9 0 24 -3 33 -6z m1356
-119 c51 -68 189 -209 269 -277 l55 -45 -22 -67 c-43 -129 -25 -205 76 -322
111 -128 162 -197 162 -217 0 -11 -15 -40 -34 -66 -42 -57 -81 -136 -89 -178
-12 -63 6 -85 156 -194 78 -57 223 -164 322 -239 99 -75 230 -171 291 -213 95
-66 124 -94 196 -185 51 -63 113 -127 152 -157 48 -37 72 -64 91 -103 14 -29
39 -74 55 -99 16 -25 27 -50 24 -54 -3 -5 -20 -9 -38 -9 -19 0 -44 -9 -57 -19
-20 -16 -24 -29 -24 -73 0 -52 -1 -53 -41 -73 -23 -11 -85 -62 -140 -113 -96
-92 -99 -94 -139 -88 -143 18 -152 18 -185 1 -58 -30 -126 -108 -165 -189 -34
-72 -40 -78 -96 -106 -32 -17 -114 -67 -182 -112 -184 -124 -200 -131 -282
-133 -43 -2 -81 3 -97 12 -15 7 -48 16 -74 20 -68 9 -101 38 -155 133 -26 47
-79 122 -118 165 -50 57 -85 110 -121 185 -59 119 -214 379 -274 459 -23 29
-51 67 -63 83 -12 17 -51 103 -88 191 -37 89 -81 184 -99 212 l-31 49 -6 191
c-5 145 -14 229 -36 354 l-30 165 -38 33 c-38 33 -38 33 -47 135 -5 57 -23
162 -40 235 -28 113 -30 133 -18 148 7 9 80 62 162 118 82 56 192 132 246 169
53 37 105 67 114 68 10 0 25 -11 34 -25 16 -25 44 -34 44 -15 0 6 -7 22 -16
35 -21 32 -12 53 31 71 42 17 51 14 60 -25 14 -67 102 -99 147 -53 21 20 21
25 11 99 -6 43 -14 88 -18 100 -6 18 1 27 36 53 24 17 52 30 63 28 11 -2 41
-30 66 -63z m-1563 -72 c13 -20 12 -24 -22 -61 -29 -32 -43 -40 -68 -39 -18 0
-38 -1 -46 -4 -22 -6 -25 30 -4 53 30 34 96 79 111 76 8 -2 21 -13 29 -25z
m1391 -51 c17 -22 15 -57 -4 -76 -48 -48 -133 23 -91 76 24 31 70 31 95 0z
m-1583 -132 c14 -45 -30 -95 -61 -69 -20 17 -18 29 13 61 32 33 40 35 48 8z
m-98 -77 c4 -9 1 -19 -5 -21 -7 -2 -34 -22 -62 -45 -42 -35 -49 -46 -45 -67 4
-14 13 -30 21 -36 7 -6 14 -16 14 -22 0 -15 -80 -72 -101 -72 -10 0 -21 -4
-24 -10 -11 -18 -43 -11 -91 19 -25 17 -59 33 -75 36 -16 4 -29 12 -29 19 0
19 40 53 90 74 25 11 62 38 83 61 37 39 48 44 152 69 59 14 65 14 72 -5z
m-394 -234 c12 -6 31 -20 42 -30 11 -9 36 -19 55 -21 28 -2 34 -7 32 -23 -7
-52 -9 -115 -3 -115 3 0 13 -4 21 -10 12 -7 12 -12 -4 -29 -27 -30 -137 -30
-166 -1 -11 11 -20 24 -20 29 0 5 -9 11 -19 14 -40 10 -44 135 -5 178 20 22
36 24 67 8z"/>
<path d="M802 8664 c10 -10 20 -16 22 -13 3 3 -5 11 -17 18 -21 13 -21 12 -5
-5z"/>
</g>
</svg>
